<?xml version="1.0" encoding="UTF-8" standalone="no"?>
<!DOCTYPE svg PUBLIC "-//W3C//DTD SVG 1.1//EN"
 "http://www.w3.org/Graphics/SVG/1.1/DTD/svg11.dtd">
<!-- Generated by graphviz version 2.40.1 (20161225.0304)
 -->
<!-- Title: snakemake_dag Pages: 1 -->
<svg width="109pt" height="908pt"
 viewBox="0.00 0.00 109.00 908.00" xmlns="http://www.w3.org/2000/svg" xmlns:xlink="http://www.w3.org/1999/xlink">
<g id="graph0" class="graph" transform="scale(1 1) rotate(0) translate(4 904)">
<title>snakemake_dag</title>
<polygon fill="#ffffff" stroke="transparent" points="-4,4 -4,-904 105,-904 105,4 -4,4"/>
<!-- 0 -->
<g id="node1" class="node">
<title>0</title>
<path fill="none" stroke="#d8c356" stroke-width="2" d="M65.5,-36C65.5,-36 35.5,-36 35.5,-36 29.5,-36 23.5,-30 23.5,-24 23.5,-24 23.5,-12 23.5,-12 23.5,-6 29.5,0 35.5,0 35.5,0 65.5,0 65.5,0 71.5,0 77.5,-6 77.5,-12 77.5,-12 77.5,-24 77.5,-24 77.5,-30 71.5,-36 65.5,-36"/>
<text text-anchor="middle" x="50.5" y="-15.5" font-family="sans" font-size="10.00" fill="#000000">all</text>
</g>
<!-- 1 -->
<g id="node2" class="node">
<title>1</title>
<path fill="none" stroke="#56d87b" stroke-width="2" d="M82.5,-108C82.5,-108 18.5,-108 18.5,-108 12.5,-108 6.5,-102 6.5,-96 6.5,-96 6.5,-84 6.5,-84 6.5,-78 12.5,-72 18.5,-72 18.5,-72 82.5,-72 82.5,-72 88.5,-72 94.5,-78 94.5,-84 94.5,-84 94.5,-96 94.5,-96 94.5,-102 88.5,-108 82.5,-108"/>
<text text-anchor="middle" x="50.5" y="-87.5" font-family="sans" font-size="10.00" fill="#000000">tab_format_11</text>
</g>
<!-- 1&#45;&gt;0 -->
<g id="edge1" class="edge">
<title>1&#45;&gt;0</title>
<path fill="none" stroke="#c0c0c0" stroke-width="2" d="M50.5,-71.8314C50.5,-64.131 50.5,-54.9743 50.5,-46.4166"/>
<polygon fill="#c0c0c0" stroke="#c0c0c0" stroke-width="2" points="54.0001,-46.4132 50.5,-36.4133 47.0001,-46.4133 54.0001,-46.4132"/>
</g>
<!-- 2 -->
<g id="node3" class="node">
<title>2</title>
<path fill="none" stroke="#d87d56" stroke-width="2" d="M85.5,-180C85.5,-180 15.5,-180 15.5,-180 9.5,-180 3.5,-174 3.5,-168 3.5,-168 3.5,-156 3.5,-156 3.5,-150 9.5,-144 15.5,-144 15.5,-144 85.5,-144 85.5,-144 91.5,-144 97.5,-150 97.5,-156 97.5,-156 97.5,-168 97.5,-168 97.5,-174 91.5,-180 85.5,-180"/>
<text text-anchor="middle" x="50.5" y="-159.5" font-family="sans" font-size="10.00" fill="#000000">merge_clust_10</text>
</g>
<!-- 2&#45;&gt;1 -->
<g id="edge2" class="edge">
<title>2&#45;&gt;1</title>
<path fill="none" stroke="#c0c0c0" stroke-width="2" d="M50.5,-143.8314C50.5,-136.131 50.5,-126.9743 50.5,-118.4166"/>
<polygon fill="#c0c0c0" stroke="#c0c0c0" stroke-width="2" points="54.0001,-118.4132 50.5,-108.4133 47.0001,-118.4133 54.0001,-118.4132"/>
</g>
<!-- 3 -->
<g id="node4" class="node">
<title>3</title>
<path fill="none" stroke="#d8a456" stroke-width="2" d="M77.5,-252C77.5,-252 23.5,-252 23.5,-252 17.5,-252 11.5,-246 11.5,-240 11.5,-240 11.5,-228 11.5,-228 11.5,-222 17.5,-216 23.5,-216 23.5,-216 77.5,-216 77.5,-216 83.5,-216 89.5,-222 89.5,-228 89.5,-228 89.5,-240 89.5,-240 89.5,-246 83.5,-252 77.5,-252"/>
<text text-anchor="middle" x="50.5" y="-231.5" font-family="sans" font-size="10.00" fill="#000000">otu_clust_09</text>
</g>
<!-- 3&#45;&gt;2 -->
<g id="edge3" class="edge">
<title>3&#45;&gt;2</title>
<path fill="none" stroke="#c0c0c0" stroke-width="2" d="M50.5,-215.8314C50.5,-208.131 50.5,-198.9743 50.5,-190.4166"/>
<polygon fill="#c0c0c0" stroke="#c0c0c0" stroke-width="2" points="54.0001,-190.4132 50.5,-180.4133 47.0001,-190.4133 54.0001,-190.4132"/>
</g>
<!-- 4 -->
<g id="node5" class="node">
<title>4</title>
<path fill="none" stroke="#9fd856" stroke-width="2" d="M82,-324C82,-324 19,-324 19,-324 13,-324 7,-318 7,-312 7,-312 7,-300 7,-300 7,-294 13,-288 19,-288 19,-288 82,-288 82,-288 88,-288 94,-294 94,-300 94,-300 94,-312 94,-312 94,-318 88,-324 82,-324"/>
<text text-anchor="middle" x="50.5" y="-303.5" font-family="sans" font-size="10.00" fill="#000000">bimera_rm_08</text>
</g>
<!-- 4&#45;&gt;3 -->
<g id="edge4" class="edge">
<title>4&#45;&gt;3</title>
<path fill="none" stroke="#c0c0c0" stroke-width="2" d="M50.5,-287.8314C50.5,-280.131 50.5,-270.9743 50.5,-262.4166"/>
<polygon fill="#c0c0c0" stroke="#c0c0c0" stroke-width="2" points="54.0001,-262.4132 50.5,-252.4133 47.0001,-262.4133 54.0001,-262.4132"/>
</g>
<!-- 5 -->
<g id="node6" class="node">
<title>5</title>
<path fill="none" stroke="#d85656" stroke-width="2" d="M80,-396C80,-396 21,-396 21,-396 15,-396 9,-390 9,-384 9,-384 9,-372 9,-372 9,-366 15,-360 21,-360 21,-360 80,-360 80,-360 86,-360 92,-366 92,-372 92,-372 92,-384 92,-384 92,-390 86,-396 80,-396"/>
<text text-anchor="middle" x="50.5" y="-375.5" font-family="sans" font-size="10.00" fill="#000000">abbun_filt_07</text>
</g>
<!-- 5&#45;&gt;4 -->
<g id="edge5" class="edge">
<title>5&#45;&gt;4</title>
<path fill="none" stroke="#c0c0c0" stroke-width="2" d="M50.5,-359.8314C50.5,-352.131 50.5,-342.9743 50.5,-334.4166"/>
<polygon fill="#c0c0c0" stroke="#c0c0c0" stroke-width="2" points="54.0001,-334.4132 50.5,-324.4133 47.0001,-334.4133 54.0001,-334.4132"/>
</g>
<!-- 6 -->
<g id="node7" class="node">
<title>6</title>
<path fill="none" stroke="#59d856" stroke-width="2" d="M76,-468C76,-468 25,-468 25,-468 19,-468 13,-462 13,-456 13,-456 13,-444 13,-444 13,-438 19,-432 25,-432 25,-432 76,-432 76,-432 82,-432 88,-438 88,-444 88,-444 88,-456 88,-456 88,-462 82,-468 76,-468"/>
<text text-anchor="middle" x="50.5" y="-447.5" font-family="sans" font-size="10.00" fill="#000000">obiclean_06</text>
</g>
<!-- 6&#45;&gt;5 -->
<g id="edge6" class="edge">
<title>6&#45;&gt;5</title>
<path fill="none" stroke="#c0c0c0" stroke-width="2" d="M50.5,-431.8314C50.5,-424.131 50.5,-414.9743 50.5,-406.4166"/>
<polygon fill="#c0c0c0" stroke="#c0c0c0" stroke-width="2" points="54.0001,-406.4132 50.5,-396.4133 47.0001,-406.4133 54.0001,-406.4132"/>
</g>
<!-- 7 -->
<g id="node8" class="node">
<title>7</title>
<path fill="none" stroke="#56d8c9" stroke-width="2" d="M69.5,-540C69.5,-540 31.5,-540 31.5,-540 25.5,-540 19.5,-534 19.5,-528 19.5,-528 19.5,-516 19.5,-516 19.5,-510 25.5,-504 31.5,-504 31.5,-504 69.5,-504 69.5,-504 75.5,-504 81.5,-510 81.5,-516 81.5,-516 81.5,-528 81.5,-528 81.5,-534 75.5,-540 69.5,-540"/>
<text text-anchor="middle" x="50.5" y="-519.5" font-family="sans" font-size="10.00" fill="#000000">derep_05</text>
</g>
<!-- 7&#45;&gt;6 -->
<g id="edge7" class="edge">
<title>7&#45;&gt;6</title>
<path fill="none" stroke="#c0c0c0" stroke-width="2" d="M50.5,-503.8314C50.5,-496.131 50.5,-486.9743 50.5,-478.4166"/>
<polygon fill="#c0c0c0" stroke="#c0c0c0" stroke-width="2" points="54.0001,-478.4132 50.5,-468.4133 47.0001,-478.4133 54.0001,-478.4132"/>
</g>
<!-- 8 -->
<g id="node9" class="node">
<title>8</title>
<path fill="none" stroke="#567bd8" stroke-width="2" d="M86.5,-612C86.5,-612 14.5,-612 14.5,-612 8.5,-612 2.5,-606 2.5,-600 2.5,-600 2.5,-588 2.5,-588 2.5,-582 8.5,-576 14.5,-576 14.5,-576 86.5,-576 86.5,-576 92.5,-576 98.5,-582 98.5,-588 98.5,-588 98.5,-600 98.5,-600 98.5,-606 92.5,-612 86.5,-612"/>
<text text-anchor="middle" x="50.5" y="-591.5" font-family="sans" font-size="10.00" fill="#000000">filt_and_trim_04</text>
</g>
<!-- 8&#45;&gt;7 -->
<g id="edge8" class="edge">
<title>8&#45;&gt;7</title>
<path fill="none" stroke="#c0c0c0" stroke-width="2" d="M50.5,-575.8314C50.5,-568.131 50.5,-558.9743 50.5,-550.4166"/>
<polygon fill="#c0c0c0" stroke="#c0c0c0" stroke-width="2" points="54.0001,-550.4132 50.5,-540.4133 47.0001,-550.4133 54.0001,-550.4132"/>
</g>
<!-- 9 -->
<g id="node10" class="node">
<title>9</title>
<path fill="none" stroke="#78d856" stroke-width="2" d="M84.5,-684C84.5,-684 16.5,-684 16.5,-684 10.5,-684 4.5,-678 4.5,-672 4.5,-672 4.5,-660 4.5,-660 4.5,-654 10.5,-648 16.5,-648 16.5,-648 84.5,-648 84.5,-648 90.5,-648 96.5,-654 96.5,-660 96.5,-660 96.5,-672 96.5,-672 96.5,-678 90.5,-684 84.5,-684"/>
<text text-anchor="middle" x="50.5" y="-663.5" font-family="sans" font-size="10.00" fill="#000000">demultiplex_03</text>
</g>
<!-- 9&#45;&gt;8 -->
<g id="edge9" class="edge">
<title>9&#45;&gt;8</title>
<path fill="none" stroke="#c0c0c0" stroke-width="2" d="M50.5,-647.8314C50.5,-640.131 50.5,-630.9743 50.5,-622.4166"/>
<polygon fill="#c0c0c0" stroke="#c0c0c0" stroke-width="2" points="54.0001,-622.4132 50.5,-612.4133 47.0001,-622.4133 54.0001,-622.4132"/>
</g>
<!-- 10 -->
<g id="node11" class="node">
<title>10</title>
<path fill="none" stroke="#56d8a2" stroke-width="2" d="M68,-756C68,-756 33,-756 33,-756 27,-756 21,-750 21,-744 21,-744 21,-732 21,-732 21,-726 27,-720 33,-720 33,-720 68,-720 68,-720 74,-720 80,-726 80,-732 80,-732 80,-744 80,-744 80,-750 74,-756 68,-756"/>
<text text-anchor="middle" x="50.5" y="-735.5" font-family="sans" font-size="10.00" fill="#000000">alifilt_03</text>
</g>
<!-- 10&#45;&gt;9 -->
<g id="edge10" class="edge">
<title>10&#45;&gt;9</title>
<path fill="none" stroke="#c0c0c0" stroke-width="2" d="M50.5,-719.8314C50.5,-712.131 50.5,-702.9743 50.5,-694.4166"/>
<polygon fill="#c0c0c0" stroke="#c0c0c0" stroke-width="2" points="54.0001,-694.4132 50.5,-684.4133 47.0001,-694.4133 54.0001,-694.4132"/>
</g>
<!-- 11 -->
<g id="node12" class="node">
<title>11</title>
<path fill="none" stroke="#c6d856" stroke-width="2" d="M89,-828C89,-828 12,-828 12,-828 6,-828 0,-822 0,-816 0,-816 0,-804 0,-804 0,-798 6,-792 12,-792 12,-792 89,-792 89,-792 95,-792 101,-798 101,-804 101,-804 101,-816 101,-816 101,-822 95,-828 89,-828"/>
<text text-anchor="middle" x="50.5" y="-807.5" font-family="sans" font-size="10.00" fill="#000000">merge_paired_01</text>
</g>
<!-- 11&#45;&gt;10 -->
<g id="edge11" class="edge">
<title>11&#45;&gt;10</title>
<path fill="none" stroke="#c0c0c0" stroke-width="2" d="M50.5,-791.8314C50.5,-784.131 50.5,-774.9743 50.5,-766.4166"/>
<polygon fill="#c0c0c0" stroke="#c0c0c0" stroke-width="2" points="54.0001,-766.4132 50.5,-756.4133 47.0001,-766.4133 54.0001,-766.4132"/>
</g>
<!-- 12 -->
<g id="node13" class="node">
<title>12</title>
<path fill="none" stroke="#56a2d8" stroke-width="2" d="M86.5,-900C86.5,-900 14.5,-900 14.5,-900 8.5,-900 2.5,-894 2.5,-888 2.5,-888 2.5,-876 2.5,-876 2.5,-870 8.5,-864 14.5,-864 14.5,-864 86.5,-864 86.5,-864 92.5,-864 98.5,-870 98.5,-876 98.5,-876 98.5,-888 98.5,-888 98.5,-894 92.5,-900 86.5,-900"/>
<text text-anchor="middle" x="50.5" y="-885" font-family="sans" font-size="10.00" fill="#000000">split_fastq</text>
<text text-anchor="middle" x="50.5" y="-874" font-family="sans" font-size="10.00" fill="#000000">run: mother_16s</text>
</g>
<!-- 12&#45;&gt;11 -->
<g id="edge12" class="edge">
<title>12&#45;&gt;11</title>
<path fill="none" stroke="#c0c0c0" stroke-width="2" d="M50.5,-863.8314C50.5,-856.131 50.5,-846.9743 50.5,-838.4166"/>
<polygon fill="#c0c0c0" stroke="#c0c0c0" stroke-width="2" points="54.0001,-838.4132 50.5,-828.4133 47.0001,-838.4133 54.0001,-838.4132"/>
</g>
</g>
</svg>
