<?xml version="1.0" encoding="UTF-8" standalone="no"?>
<!DOCTYPE svg PUBLIC "-//W3C//DTD SVG 1.1//EN"
 "http://www.w3.org/Graphics/SVG/1.1/DTD/svg11.dtd">
<!-- Generated by graphviz version 2.40.1 (20161225.0304)
 -->
<!-- Title: snakemake_dag Pages: 1 -->
<svg width="109pt" height="476pt"
 viewBox="0.00 0.00 109.00 476.00" xmlns="http://www.w3.org/2000/svg" xmlns:xlink="http://www.w3.org/1999/xlink">
<g id="graph0" class="graph" transform="scale(1 1) rotate(0) translate(4 472)">
<title>snakemake_dag</title>
<polygon fill="#ffffff" stroke="transparent" points="-4,4 -4,-472 105,-472 105,4 -4,4"/>
<!-- 0 -->
<g id="node1" class="node">
<title>0</title>
<path fill="none" stroke="#d6d856" stroke-width="2" d="M65.5,-36C65.5,-36 35.5,-36 35.5,-36 29.5,-36 23.5,-30 23.5,-24 23.5,-24 23.5,-12 23.5,-12 23.5,-6 29.5,0 35.5,0 35.5,0 65.5,0 65.5,0 71.5,0 77.5,-6 77.5,-12 77.5,-12 77.5,-24 77.5,-24 77.5,-30 71.5,-36 65.5,-36"/>
<text text-anchor="middle" x="50.5" y="-15.5" font-family="sans" font-size="10.00" fill="#000000">all</text>
</g>
<!-- 1 -->
<g id="node2" class="node">
<title>1</title>
<path fill="none" stroke="#56d89a" stroke-width="2" d="M69.5,-108C69.5,-108 31.5,-108 31.5,-108 25.5,-108 19.5,-102 19.5,-96 19.5,-96 19.5,-84 19.5,-84 19.5,-78 25.5,-72 31.5,-72 31.5,-72 69.5,-72 69.5,-72 75.5,-72 81.5,-78 81.5,-84 81.5,-84 81.5,-96 81.5,-96 81.5,-102 75.5,-108 69.5,-108"/>
<text text-anchor="middle" x="50.5" y="-87.5" font-family="sans" font-size="10.00" fill="#000000">derep_05</text>
</g>
<!-- 1&#45;&gt;0 -->
<g id="edge1" class="edge">
<title>1&#45;&gt;0</title>
<path fill="none" stroke="#c0c0c0" stroke-width="2" d="M50.5,-71.8314C50.5,-64.131 50.5,-54.9743 50.5,-46.4166"/>
<polygon fill="#c0c0c0" stroke="#c0c0c0" stroke-width="2" points="54.0001,-46.4132 50.5,-36.4133 47.0001,-46.4133 54.0001,-46.4132"/>
</g>
<!-- 2 -->
<g id="node3" class="node">
<title>2</title>
<path fill="none" stroke="#d89556" stroke-width="2" d="M86.5,-180C86.5,-180 14.5,-180 14.5,-180 8.5,-180 2.5,-174 2.5,-168 2.5,-168 2.5,-156 2.5,-156 2.5,-150 8.5,-144 14.5,-144 14.5,-144 86.5,-144 86.5,-144 92.5,-144 98.5,-150 98.5,-156 98.5,-156 98.5,-168 98.5,-168 98.5,-174 92.5,-180 86.5,-180"/>
<text text-anchor="middle" x="50.5" y="-159.5" font-family="sans" font-size="10.00" fill="#000000">filt_and_trim_04</text>
</g>
<!-- 2&#45;&gt;1 -->
<g id="edge2" class="edge">
<title>2&#45;&gt;1</title>
<path fill="none" stroke="#c0c0c0" stroke-width="2" d="M50.5,-143.8314C50.5,-136.131 50.5,-126.9743 50.5,-118.4166"/>
<polygon fill="#c0c0c0" stroke="#c0c0c0" stroke-width="2" points="54.0001,-118.4132 50.5,-108.4133 47.0001,-118.4133 54.0001,-118.4132"/>
</g>
<!-- 3 -->
<g id="node4" class="node">
<title>3</title>
<path fill="none" stroke="#97d856" stroke-width="2" d="M84.5,-252C84.5,-252 16.5,-252 16.5,-252 10.5,-252 4.5,-246 4.5,-240 4.5,-240 4.5,-228 4.5,-228 4.5,-222 10.5,-216 16.5,-216 16.5,-216 84.5,-216 84.5,-216 90.5,-216 96.5,-222 96.5,-228 96.5,-228 96.5,-240 96.5,-240 96.5,-246 90.5,-252 84.5,-252"/>
<text text-anchor="middle" x="50.5" y="-231.5" font-family="sans" font-size="10.00" fill="#000000">demultiplex_03</text>
</g>
<!-- 3&#45;&gt;2 -->
<g id="edge3" class="edge">
<title>3&#45;&gt;2</title>
<path fill="none" stroke="#c0c0c0" stroke-width="2" d="M50.5,-215.8314C50.5,-208.131 50.5,-198.9743 50.5,-190.4166"/>
<polygon fill="#c0c0c0" stroke="#c0c0c0" stroke-width="2" points="54.0001,-190.4132 50.5,-180.4133 47.0001,-190.4133 54.0001,-190.4132"/>
</g>
<!-- 4 -->
<g id="node5" class="node">
<title>4</title>
<path fill="none" stroke="#59d856" stroke-width="2" d="M68,-324C68,-324 33,-324 33,-324 27,-324 21,-318 21,-312 21,-312 21,-300 21,-300 21,-294 27,-288 33,-288 33,-288 68,-288 68,-288 74,-288 80,-294 80,-300 80,-300 80,-312 80,-312 80,-318 74,-324 68,-324"/>
<text text-anchor="middle" x="50.5" y="-303.5" font-family="sans" font-size="10.00" fill="#000000">alifilt_03</text>
</g>
<!-- 4&#45;&gt;3 -->
<g id="edge4" class="edge">
<title>4&#45;&gt;3</title>
<path fill="none" stroke="#c0c0c0" stroke-width="2" d="M50.5,-287.8314C50.5,-280.131 50.5,-270.9743 50.5,-262.4166"/>
<polygon fill="#c0c0c0" stroke="#c0c0c0" stroke-width="2" points="54.0001,-262.4132 50.5,-252.4133 47.0001,-262.4133 54.0001,-262.4132"/>
</g>
<!-- 5 -->
<g id="node6" class="node">
<title>5</title>
<path fill="none" stroke="#56d8d8" stroke-width="2" d="M89,-396C89,-396 12,-396 12,-396 6,-396 0,-390 0,-384 0,-384 0,-372 0,-372 0,-366 6,-360 12,-360 12,-360 89,-360 89,-360 95,-360 101,-366 101,-372 101,-372 101,-384 101,-384 101,-390 95,-396 89,-396"/>
<text text-anchor="middle" x="50.5" y="-375.5" font-family="sans" font-size="10.00" fill="#000000">merge_paired_01</text>
</g>
<!-- 5&#45;&gt;4 -->
<g id="edge5" class="edge">
<title>5&#45;&gt;4</title>
<path fill="none" stroke="#c0c0c0" stroke-width="2" d="M50.5,-359.8314C50.5,-352.131 50.5,-342.9743 50.5,-334.4166"/>
<polygon fill="#c0c0c0" stroke="#c0c0c0" stroke-width="2" points="54.0001,-334.4132 50.5,-324.4133 47.0001,-334.4133 54.0001,-334.4132"/>
</g>
<!-- 6 -->
<g id="node7" class="node">
<title>6</title>
<path fill="none" stroke="#569ad8" stroke-width="2" d="M86.5,-468C86.5,-468 14.5,-468 14.5,-468 8.5,-468 2.5,-462 2.5,-456 2.5,-456 2.5,-444 2.5,-444 2.5,-438 8.5,-432 14.5,-432 14.5,-432 86.5,-432 86.5,-432 92.5,-432 98.5,-438 98.5,-444 98.5,-444 98.5,-456 98.5,-456 98.5,-462 92.5,-468 86.5,-468"/>
<text text-anchor="middle" x="50.5" y="-453" font-family="sans" font-size="10.00" fill="#000000">split_fastq</text>
<text text-anchor="middle" x="50.5" y="-442" font-family="sans" font-size="10.00" fill="#000000">run: mother_16s</text>
</g>
<!-- 6&#45;&gt;5 -->
<g id="edge6" class="edge">
<title>6&#45;&gt;5</title>
<path fill="none" stroke="#c0c0c0" stroke-width="2" d="M50.5,-431.8314C50.5,-424.131 50.5,-414.9743 50.5,-406.4166"/>
<polygon fill="#c0c0c0" stroke="#c0c0c0" stroke-width="2" points="54.0001,-406.4132 50.5,-396.4133 47.0001,-406.4133 54.0001,-406.4132"/>
</g>
</g>
</svg>
