<?xml version="1.0" encoding="UTF-8" standalone="no"?>
<!DOCTYPE svg PUBLIC "-//W3C//DTD SVG 1.1//EN"
 "http://www.w3.org/Graphics/SVG/1.1/DTD/svg11.dtd">
<!-- Generated by graphviz version 2.40.1 (20161225.0304)
 -->
<!-- Title: snakemake_dag Pages: 1 -->
<svg width="196pt" height="980pt"
 viewBox="0.00 0.00 195.50 980.00" xmlns="http://www.w3.org/2000/svg" xmlns:xlink="http://www.w3.org/1999/xlink">
<g id="graph0" class="graph" transform="scale(1 1) rotate(0) translate(4 976)">
<title>snakemake_dag</title>
<polygon fill="#ffffff" stroke="transparent" points="-4,4 -4,-976 191.5,-976 191.5,4 -4,4"/>
<!-- 0 -->
<g id="node1" class="node">
<title>0</title>
<path fill="none" stroke="#567bd8" stroke-width="2" d="M110,-36C110,-36 80,-36 80,-36 74,-36 68,-30 68,-24 68,-24 68,-12 68,-12 68,-6 74,0 80,0 80,0 110,0 110,0 116,0 122,-6 122,-12 122,-12 122,-24 122,-24 122,-30 116,-36 110,-36"/>
<text text-anchor="middle" x="95" y="-15.5" font-family="sans" font-size="10.00" fill="#000000">all</text>
</g>
<!-- 1 -->
<g id="node2" class="node">
<title>1</title>
<path fill="none" stroke="#d87556" stroke-width="2" d="M76,-108C76,-108 12,-108 12,-108 6,-108 0,-102 0,-96 0,-96 0,-84 0,-84 0,-78 6,-72 12,-72 12,-72 76,-72 76,-72 82,-72 88,-78 88,-84 88,-84 88,-96 88,-96 88,-102 82,-108 76,-108"/>
<text text-anchor="middle" x="44" y="-87.5" font-family="sans" font-size="10.00" fill="#000000">tab_format_12</text>
</g>
<!-- 1&#45;&gt;0 -->
<g id="edge1" class="edge">
<title>1&#45;&gt;0</title>
<path fill="none" stroke="#c0c0c0" stroke-width="2" d="M56.8695,-71.8314C62.6835,-63.6232 69.6696,-53.7606 76.0646,-44.7323"/>
<polygon fill="#c0c0c0" stroke="#c0c0c0" stroke-width="2" points="79.0331,-46.5966 81.9573,-36.4133 73.321,-42.5505 79.0331,-46.5966"/>
</g>
<!-- 2 -->
<g id="node3" class="node">
<title>2</title>
<path fill="none" stroke="#78d856" stroke-width="2" d="M175.5,-108C175.5,-108 118.5,-108 118.5,-108 112.5,-108 106.5,-102 106.5,-96 106.5,-96 106.5,-84 106.5,-84 106.5,-78 112.5,-72 118.5,-72 118.5,-72 175.5,-72 175.5,-72 181.5,-72 187.5,-78 187.5,-84 187.5,-84 187.5,-96 187.5,-96 187.5,-102 181.5,-108 175.5,-108"/>
<text text-anchor="middle" x="147" y="-87.5" font-family="sans" font-size="10.00" fill="#000000">taxassign_12</text>
</g>
<!-- 2&#45;&gt;0 -->
<g id="edge2" class="edge">
<title>2&#45;&gt;0</title>
<path fill="none" stroke="#c0c0c0" stroke-width="2" d="M133.8782,-71.8314C127.9501,-63.6232 120.8271,-53.7606 114.3067,-44.7323"/>
<polygon fill="#c0c0c0" stroke="#c0c0c0" stroke-width="2" points="116.9908,-42.4708 108.2985,-36.4133 111.316,-46.5693 116.9908,-42.4708"/>
</g>
<!-- 3 -->
<g id="node4" class="node">
<title>3</title>
<path fill="none" stroke="#b6d856" stroke-width="2" d="M130,-180C130,-180 60,-180 60,-180 54,-180 48,-174 48,-168 48,-168 48,-156 48,-156 48,-150 54,-144 60,-144 60,-144 130,-144 130,-144 136,-144 142,-150 142,-156 142,-156 142,-168 142,-168 142,-174 136,-180 130,-180"/>
<text text-anchor="middle" x="95" y="-159.5" font-family="sans" font-size="10.00" fill="#000000">merge_clust_11</text>
</g>
<!-- 3&#45;&gt;1 -->
<g id="edge3" class="edge">
<title>3&#45;&gt;1</title>
<path fill="none" stroke="#c0c0c0" stroke-width="2" d="M82.1305,-143.8314C76.3165,-135.6232 69.3304,-125.7606 62.9354,-116.7323"/>
<polygon fill="#c0c0c0" stroke="#c0c0c0" stroke-width="2" points="65.679,-114.5505 57.0427,-108.4133 59.9669,-118.5966 65.679,-114.5505"/>
</g>
<!-- 3&#45;&gt;2 -->
<g id="edge4" class="edge">
<title>3&#45;&gt;2</title>
<path fill="none" stroke="#c0c0c0" stroke-width="2" d="M108.1218,-143.8314C114.0499,-135.6232 121.1729,-125.7606 127.6933,-116.7323"/>
<polygon fill="#c0c0c0" stroke="#c0c0c0" stroke-width="2" points="130.684,-118.5693 133.7015,-108.4133 125.0092,-114.4708 130.684,-118.5693"/>
</g>
<!-- 4 -->
<g id="node5" class="node">
<title>4</title>
<path fill="none" stroke="#d89556" stroke-width="2" d="M122,-252C122,-252 68,-252 68,-252 62,-252 56,-246 56,-240 56,-240 56,-228 56,-228 56,-222 62,-216 68,-216 68,-216 122,-216 122,-216 128,-216 134,-222 134,-228 134,-228 134,-240 134,-240 134,-246 128,-252 122,-252"/>
<text text-anchor="middle" x="95" y="-231.5" font-family="sans" font-size="10.00" fill="#000000">otu_clust_10</text>
</g>
<!-- 4&#45;&gt;3 -->
<g id="edge5" class="edge">
<title>4&#45;&gt;3</title>
<path fill="none" stroke="#c0c0c0" stroke-width="2" d="M95,-215.8314C95,-208.131 95,-198.9743 95,-190.4166"/>
<polygon fill="#c0c0c0" stroke="#c0c0c0" stroke-width="2" points="98.5001,-190.4132 95,-180.4133 91.5001,-190.4133 98.5001,-190.4132"/>
</g>
<!-- 5 -->
<g id="node6" class="node">
<title>5</title>
<path fill="none" stroke="#d6d856" stroke-width="2" d="M126.5,-324C126.5,-324 63.5,-324 63.5,-324 57.5,-324 51.5,-318 51.5,-312 51.5,-312 51.5,-300 51.5,-300 51.5,-294 57.5,-288 63.5,-288 63.5,-288 126.5,-288 126.5,-288 132.5,-288 138.5,-294 138.5,-300 138.5,-300 138.5,-312 138.5,-312 138.5,-318 132.5,-324 126.5,-324"/>
<text text-anchor="middle" x="95" y="-303.5" font-family="sans" font-size="10.00" fill="#000000">bimera_rm_09</text>
</g>
<!-- 5&#45;&gt;4 -->
<g id="edge6" class="edge">
<title>5&#45;&gt;4</title>
<path fill="none" stroke="#c0c0c0" stroke-width="2" d="M95,-287.8314C95,-280.131 95,-270.9743 95,-262.4166"/>
<polygon fill="#c0c0c0" stroke="#c0c0c0" stroke-width="2" points="98.5001,-262.4132 95,-252.4133 91.5001,-262.4133 98.5001,-262.4132"/>
</g>
<!-- 6 -->
<g id="node7" class="node">
<title>6</title>
<path fill="none" stroke="#56d8b9" stroke-width="2" d="M124.5,-396C124.5,-396 65.5,-396 65.5,-396 59.5,-396 53.5,-390 53.5,-384 53.5,-384 53.5,-372 53.5,-372 53.5,-366 59.5,-360 65.5,-360 65.5,-360 124.5,-360 124.5,-360 130.5,-360 136.5,-366 136.5,-372 136.5,-372 136.5,-384 136.5,-384 136.5,-390 130.5,-396 124.5,-396"/>
<text text-anchor="middle" x="95" y="-375.5" font-family="sans" font-size="10.00" fill="#000000">abbun_filt_08</text>
</g>
<!-- 6&#45;&gt;5 -->
<g id="edge7" class="edge">
<title>6&#45;&gt;5</title>
<path fill="none" stroke="#c0c0c0" stroke-width="2" d="M95,-359.8314C95,-352.131 95,-342.9743 95,-334.4166"/>
<polygon fill="#c0c0c0" stroke="#c0c0c0" stroke-width="2" points="98.5001,-334.4132 95,-324.4133 91.5001,-334.4133 98.5001,-334.4132"/>
</g>
<!-- 7 -->
<g id="node8" class="node">
<title>7</title>
<path fill="none" stroke="#97d856" stroke-width="2" d="M120.5,-468C120.5,-468 69.5,-468 69.5,-468 63.5,-468 57.5,-462 57.5,-456 57.5,-456 57.5,-444 57.5,-444 57.5,-438 63.5,-432 69.5,-432 69.5,-432 120.5,-432 120.5,-432 126.5,-432 132.5,-438 132.5,-444 132.5,-444 132.5,-456 132.5,-456 132.5,-462 126.5,-468 120.5,-468"/>
<text text-anchor="middle" x="95" y="-447.5" font-family="sans" font-size="10.00" fill="#000000">obiclean_07</text>
</g>
<!-- 7&#45;&gt;6 -->
<g id="edge8" class="edge">
<title>7&#45;&gt;6</title>
<path fill="none" stroke="#c0c0c0" stroke-width="2" d="M95,-431.8314C95,-424.131 95,-414.9743 95,-406.4166"/>
<polygon fill="#c0c0c0" stroke="#c0c0c0" stroke-width="2" points="98.5001,-406.4132 95,-396.4133 91.5001,-406.4133 98.5001,-406.4132"/>
</g>
<!-- 8 -->
<g id="node9" class="node">
<title>8</title>
<path fill="none" stroke="#59d856" stroke-width="2" d="M114,-540C114,-540 76,-540 76,-540 70,-540 64,-534 64,-528 64,-528 64,-516 64,-516 64,-510 70,-504 76,-504 76,-504 114,-504 114,-504 120,-504 126,-510 126,-516 126,-516 126,-528 126,-528 126,-534 120,-540 114,-540"/>
<text text-anchor="middle" x="95" y="-519.5" font-family="sans" font-size="10.00" fill="#000000">derep_05</text>
</g>
<!-- 8&#45;&gt;7 -->
<g id="edge9" class="edge">
<title>8&#45;&gt;7</title>
<path fill="none" stroke="#c0c0c0" stroke-width="2" d="M95,-503.8314C95,-496.131 95,-486.9743 95,-478.4166"/>
<polygon fill="#c0c0c0" stroke="#c0c0c0" stroke-width="2" points="98.5001,-478.4132 95,-468.4133 91.5001,-478.4133 98.5001,-478.4132"/>
</g>
<!-- 9 -->
<g id="node10" class="node">
<title>9</title>
<path fill="none" stroke="#56b9d8" stroke-width="2" d="M131,-612C131,-612 59,-612 59,-612 53,-612 47,-606 47,-600 47,-600 47,-588 47,-588 47,-582 53,-576 59,-576 59,-576 131,-576 131,-576 137,-576 143,-582 143,-588 143,-588 143,-600 143,-600 143,-606 137,-612 131,-612"/>
<text text-anchor="middle" x="95" y="-591.5" font-family="sans" font-size="10.00" fill="#000000">filt_and_trim_04</text>
</g>
<!-- 9&#45;&gt;8 -->
<g id="edge10" class="edge">
<title>9&#45;&gt;8</title>
<path fill="none" stroke="#c0c0c0" stroke-width="2" d="M95,-575.8314C95,-568.131 95,-558.9743 95,-550.4166"/>
<polygon fill="#c0c0c0" stroke="#c0c0c0" stroke-width="2" points="98.5001,-550.4132 95,-540.4133 91.5001,-550.4133 98.5001,-550.4132"/>
</g>
<!-- 10 -->
<g id="node11" class="node">
<title>10</title>
<path fill="none" stroke="#d85656" stroke-width="2" d="M125.5,-684C125.5,-684 64.5,-684 64.5,-684 58.5,-684 52.5,-678 52.5,-672 52.5,-672 52.5,-660 52.5,-660 52.5,-654 58.5,-648 64.5,-648 64.5,-648 125.5,-648 125.5,-648 131.5,-648 137.5,-654 137.5,-660 137.5,-660 137.5,-672 137.5,-672 137.5,-678 131.5,-684 125.5,-684"/>
<text text-anchor="middle" x="95" y="-663.5" font-family="sans" font-size="10.00" fill="#000000">dada_prep_04</text>
</g>
<!-- 10&#45;&gt;9 -->
<g id="edge11" class="edge">
<title>10&#45;&gt;9</title>
<path fill="none" stroke="#c0c0c0" stroke-width="2" d="M95,-647.8314C95,-640.131 95,-630.9743 95,-622.4166"/>
<polygon fill="#c0c0c0" stroke="#c0c0c0" stroke-width="2" points="98.5001,-622.4132 95,-612.4133 91.5001,-622.4133 98.5001,-622.4132"/>
</g>
<!-- 11 -->
<g id="node12" class="node">
<title>11</title>
<path fill="none" stroke="#d8b456" stroke-width="2" d="M129,-756C129,-756 61,-756 61,-756 55,-756 49,-750 49,-744 49,-744 49,-732 49,-732 49,-726 55,-720 61,-720 61,-720 129,-720 129,-720 135,-720 141,-726 141,-732 141,-732 141,-744 141,-744 141,-750 135,-756 129,-756"/>
<text text-anchor="middle" x="95" y="-735.5" font-family="sans" font-size="10.00" fill="#000000">demultiplex_03</text>
</g>
<!-- 11&#45;&gt;10 -->
<g id="edge12" class="edge">
<title>11&#45;&gt;10</title>
<path fill="none" stroke="#c0c0c0" stroke-width="2" d="M95,-719.8314C95,-712.131 95,-702.9743 95,-694.4166"/>
<polygon fill="#c0c0c0" stroke="#c0c0c0" stroke-width="2" points="98.5001,-694.4132 95,-684.4133 91.5001,-694.4133 98.5001,-694.4132"/>
</g>
<!-- 12 -->
<g id="node13" class="node">
<title>12</title>
<path fill="none" stroke="#56d89a" stroke-width="2" d="M112.5,-828C112.5,-828 77.5,-828 77.5,-828 71.5,-828 65.5,-822 65.5,-816 65.5,-816 65.5,-804 65.5,-804 65.5,-798 71.5,-792 77.5,-792 77.5,-792 112.5,-792 112.5,-792 118.5,-792 124.5,-798 124.5,-804 124.5,-804 124.5,-816 124.5,-816 124.5,-822 118.5,-828 112.5,-828"/>
<text text-anchor="middle" x="95" y="-807.5" font-family="sans" font-size="10.00" fill="#000000">alifilt_02</text>
</g>
<!-- 12&#45;&gt;11 -->
<g id="edge13" class="edge">
<title>12&#45;&gt;11</title>
<path fill="none" stroke="#c0c0c0" stroke-width="2" d="M95,-791.8314C95,-784.131 95,-774.9743 95,-766.4166"/>
<polygon fill="#c0c0c0" stroke="#c0c0c0" stroke-width="2" points="98.5001,-766.4132 95,-756.4133 91.5001,-766.4133 98.5001,-766.4132"/>
</g>
<!-- 13 -->
<g id="node14" class="node">
<title>13</title>
<path fill="none" stroke="#56d8d8" stroke-width="2" stroke-dasharray="5,2" d="M133.5,-900C133.5,-900 56.5,-900 56.5,-900 50.5,-900 44.5,-894 44.5,-888 44.5,-888 44.5,-876 44.5,-876 44.5,-870 50.5,-864 56.5,-864 56.5,-864 133.5,-864 133.5,-864 139.5,-864 145.5,-870 145.5,-876 145.5,-876 145.5,-888 145.5,-888 145.5,-894 139.5,-900 133.5,-900"/>
<text text-anchor="middle" x="95" y="-879.5" font-family="sans" font-size="10.00" fill="#000000">merge_paired_01</text>
</g>
<!-- 13&#45;&gt;12 -->
<g id="edge14" class="edge">
<title>13&#45;&gt;12</title>
<path fill="none" stroke="#c0c0c0" stroke-width="2" d="M95,-863.8314C95,-856.131 95,-846.9743 95,-838.4166"/>
<polygon fill="#c0c0c0" stroke="#c0c0c0" stroke-width="2" points="98.5001,-838.4132 95,-828.4133 91.5001,-838.4133 98.5001,-838.4132"/>
</g>
<!-- 14 -->
<g id="node15" class="node">
<title>14</title>
<path fill="none" stroke="#56d87b" stroke-width="2" stroke-dasharray="5,2" d="M131,-972C131,-972 59,-972 59,-972 53,-972 47,-966 47,-960 47,-960 47,-948 47,-948 47,-942 53,-936 59,-936 59,-936 131,-936 131,-936 137,-936 143,-942 143,-948 143,-948 143,-960 143,-960 143,-966 137,-972 131,-972"/>
<text text-anchor="middle" x="95" y="-957" font-family="sans" font-size="10.00" fill="#000000">split_fastq</text>
<text text-anchor="middle" x="95" y="-946" font-family="sans" font-size="10.00" fill="#000000">run: mother_16s</text>
</g>
<!-- 14&#45;&gt;13 -->
<g id="edge15" class="edge">
<title>14&#45;&gt;13</title>
<path fill="none" stroke="#c0c0c0" stroke-width="2" d="M95,-935.8314C95,-928.131 95,-918.9743 95,-910.4166"/>
<polygon fill="#c0c0c0" stroke="#c0c0c0" stroke-width="2" points="98.5001,-910.4132 95,-900.4133 91.5001,-910.4133 98.5001,-910.4132"/>
</g>
</g>
</svg>
